;PTH Drill file created by EasyEDA 
M48
INCH,LZ
;Holesize 1 = 0.012 INCH
T01C0.012
;Holesize 2 = 0.020 INCH
T02C0.020
;Holesize 3 = 0.028 INCH
T03C0.028
;Holesize 4 = 0.035 INCH
T04C0.035
;Holesize 5 = 0.035 INCH
T05C0.035
;Holesize 6 = 0.036 INCH
T06C0.036
;Holesize 7 = 0.043 INCH
T07C0.043
;Holesize 8 = 0.047 INCH
T08C0.047
%
G05
G90
T01
X007557Y006826
X016926Y008423
X005921Y004994
X003634Y007069
X018007Y012848
X018757Y006236
X009885Y014607
X012581Y009740
X021810Y008965
X020973Y009711
X010400Y007800
X018968Y011315
X021778Y012503
X019247Y006269
X019106Y010411
X023793Y013448
X022081Y009448
X016652Y004028
X015746Y010146
X021285Y009148
X019525Y010757
X018967Y009886
X013275Y017851
X017560Y009742
X009722Y008273
X016657Y007819
X015980Y009478
X017627Y013600
X003971Y012198
X013447Y015221
X009884Y009207
X019440Y012507
X016119Y010801
X018256Y011261
X020150Y011661
X020434Y011388
X020694Y011609
T02
X012160Y013200
X010239Y013200
T03
X000546Y006675G85X000861Y006675
X000546Y009525G85X000861Y009525
T04
X020000Y004900
X021000Y004900
X025000Y017500
X025000Y016500
X025035Y001017
X024035Y001017
X023035Y001017
X022035Y001017
X021035Y001017
X020035Y001017
X013000Y001000
X014000Y001000
X015000Y001000
X016000Y001000
X017000Y001000
X018000Y001000
X026000Y007800
X026000Y006800
X026000Y005800
X026000Y004800
X025000Y020000
X024000Y020000
X023000Y020000
X022000Y020000
X021000Y020000
X020000Y020000
X019000Y020000
X018000Y020000
X007400Y020000
X008400Y020000
X009400Y020000
X010400Y020000
X011400Y020000
X012400Y020000
X013400Y020000
X014400Y020000
X015400Y020000
X016400Y020000
T05
X001767Y009048
X001767Y007142
T06
X003400Y014600
X002400Y014600
X001400Y014600
X003400Y013600
X002400Y013600
X001400Y013600
T07
X025000Y011400
X026000Y011400
X025000Y010400
X026000Y010400
X025000Y009400
X026000Y009400
T08
X003100Y019300
X001100Y019300
M30
