G04 ---------------------------- Layer name :TOP PASTER LAYER*
G04 EasyEDA v5.5.14, Mon, 18 Jun 2018 23:09:04 GMT*
G04 84bf75b42abb48d08708263c728ca580*
G04 Gerber Generator version 0.2*
G04 Scale: 100 percent, Rotated: No, Reflected: No *
G04 Dimensions in inches *
G04 leading zeros omitted , absolute positions ,2 integer and 4 decimal *
%FSLAX24Y24*%
%MOIN*%
G90*
G70D02*

%ADD12C,0.011024*%
%ADD14R,0.039370X0.043307*%
%ADD15R,0.078740X0.017716*%
%ADD16R,0.047240X0.062992*%
%ADD17R,0.094500X0.094500*%
%ADD18R,0.025590X0.023620*%
%ADD19R,0.023620X0.025590*%
%ADD20R,0.031496X0.047240*%
%ADD21R,0.031496X0.098425*%
%ADD22R,0.063000X0.070900*%
%ADD23R,0.057870X0.045670*%
%ADD24R,0.045670X0.057870*%
%ADD25R,0.031496X0.110236*%
%ADD26R,0.078740X0.149606*%
%ADD27R,0.078740X0.059055*%

%LPD*%
G54D12*
G01X16187Y9926D02*
G01X16610Y10349D01*
G01X16327Y9786D02*
G01X16750Y10209D01*
G01X16466Y9647D02*
G01X16889Y10070D01*
G01X16605Y9508D02*
G01X17028Y9931D01*
G01X16744Y9369D02*
G01X17167Y9792D01*
G01X16883Y9230D02*
G01X17306Y9653D01*
G01X17023Y9091D02*
G01X17446Y9514D01*
G01X17162Y8951D02*
G01X17585Y9374D01*
G01X17301Y8812D02*
G01X17724Y9235D01*
G01X17440Y8673D02*
G01X17863Y9096D01*
G01X17579Y8534D02*
G01X18002Y8957D01*
G01X17719Y8395D02*
G01X18142Y8818D01*
G01X18442Y8818D02*
G01X18865Y8395D01*
G01X18582Y8957D02*
G01X19005Y8534D01*
G01X18721Y9096D02*
G01X19144Y8673D01*
G01X18860Y9235D02*
G01X19283Y8812D01*
G01X18999Y9374D02*
G01X19422Y8951D01*
G01X19138Y9514D02*
G01X19561Y9091D01*
G01X19278Y9653D02*
G01X19701Y9230D01*
G01X19417Y9792D02*
G01X19840Y9369D01*
G01X19556Y9931D02*
G01X19979Y9508D01*
G01X19695Y10070D02*
G01X20118Y9647D01*
G01X19834Y10209D02*
G01X20257Y9786D01*
G01X19974Y10349D02*
G01X20397Y9926D01*
G01X19974Y10649D02*
G01X20397Y11072D01*
G01X19834Y10789D02*
G01X20257Y11212D01*
G01X19695Y10928D02*
G01X20118Y11351D01*
G01X19556Y11067D02*
G01X19979Y11490D01*
G01X19417Y11206D02*
G01X19840Y11629D01*
G01X19278Y11345D02*
G01X19701Y11768D01*
G01X19138Y11485D02*
G01X19561Y11908D01*
G01X18999Y11624D02*
G01X19422Y12047D01*
G01X18860Y11763D02*
G01X19283Y12186D01*
G01X18721Y11902D02*
G01X19144Y12325D01*
G01X18582Y12041D02*
G01X19005Y12464D01*
G01X18442Y12181D02*
G01X18865Y12604D01*
G01X17719Y12604D02*
G01X18142Y12181D01*
G01X17579Y12464D02*
G01X18002Y12041D01*
G01X17440Y12325D02*
G01X17863Y11902D01*
G01X17301Y12186D02*
G01X17724Y11763D01*
G01X17162Y12047D02*
G01X17585Y11624D01*
G01X17023Y11908D02*
G01X17446Y11485D01*
G01X16883Y11768D02*
G01X17306Y11345D01*
G01X16744Y11629D02*
G01X17167Y11206D01*
G01X16605Y11490D02*
G01X17028Y11067D01*
G01X16466Y11351D02*
G01X16889Y10928D01*
G01X16327Y11212D02*
G01X16750Y10789D01*
G01X16187Y11072D02*
G01X16610Y10649D01*
G54D14*
G01X7894Y15500D03*
G01X7264Y15500D03*
G54D15*
G01X2075Y7592D03*
G01X2075Y7848D03*
G01X2075Y8104D03*
G01X2075Y8359D03*
G01X2075Y8615D03*
G54D16*
G01X378Y7471D03*
G01X384Y8762D03*
G54D17*
G01X3469Y4700D03*
G01X1730Y4700D03*
G54D18*
G01X4900Y7069D03*
G01X4900Y6736D03*
G01X7033Y7069D03*
G01X7033Y6736D03*
G01X8100Y7069D03*
G01X8100Y6736D03*
G54D19*
G01X12369Y11300D03*
G01X12035Y11300D03*
G01X9930Y11300D03*
G01X10264Y11300D03*
G01X15430Y6200D03*
G01X15764Y6200D03*
G01X16969Y6200D03*
G01X16635Y6200D03*
G54D20*
G01X15746Y7396D03*
G01X16657Y7396D03*
G54D21*
G01X7701Y700D03*
G01X7701Y2250D03*
G54D14*
G01X5306Y15499D03*
G01X5935Y15499D03*
G54D22*
G01X10450Y15700D03*
G01X11550Y15700D03*
G54D14*
G01X22493Y10800D03*
G01X21864Y10800D03*
G54D18*
G01X5900Y14269D03*
G01X5900Y13936D03*
G01X5966Y7069D03*
G01X5966Y6736D03*
G01X7200Y14269D03*
G01X7200Y13936D03*
G54D23*
G01X5500Y5399D03*
G01X5500Y4599D03*
G01X7400Y5399D03*
G01X7400Y4599D03*
G54D19*
G01X3130Y16800D03*
G01X3463Y16800D03*
G01X1530Y16800D03*
G01X1863Y16800D03*
G54D24*
G01X14300Y15700D03*
G01X13500Y15700D03*
G01X22400Y13599D03*
G01X23200Y13599D03*
G54D25*
G01X10601Y2700D03*
G01X10601Y700D03*
G54D18*
G01X23600Y5169D03*
G01X23600Y4836D03*
G54D26*
G01X900Y1800D03*
G54D27*
G01X3380Y1800D03*
G01X3380Y2705D03*
G01X3380Y894D03*
M00*
M02*
