G04 ---------------------------- Layer name :TOP LAYER*
G04 EasyEDA v5.5.14, Mon, 18 Jun 2018 23:09:04 GMT*
G04 84bf75b42abb48d08708263c728ca580*
G04 Gerber Generator version 0.2*
G04 Scale: 100 percent, Rotated: No, Reflected: No *
G04 Dimensions in inches *
G04 leading zeros omitted , absolute positions ,2 integer and 4 decimal *
%FSLAX24Y24*%
%MOIN*%
G90*
G70D02*

%ADD11C,0.008000*%
%ADD12C,0.011024*%
%ADD13C,0.024000*%
%ADD14R,0.039370X0.043307*%
%ADD15R,0.078740X0.017716*%
%ADD16R,0.047240X0.062992*%
%ADD17R,0.094500X0.094500*%
%ADD18R,0.025590X0.023620*%
%ADD19R,0.023620X0.025590*%
%ADD20R,0.031496X0.047240*%
%ADD21R,0.031496X0.098425*%
%ADD22R,0.063000X0.070900*%
%ADD23R,0.057870X0.045670*%
%ADD24R,0.045670X0.057870*%
%ADD25R,0.031496X0.110236*%
%ADD26R,0.078740X0.149606*%
%ADD27R,0.078740X0.059055*%
%ADD28R,0.062000X0.062000*%
%ADD29C,0.062000*%
%ADD30C,0.059055*%
%ADD31R,0.035700X0.035700*%
%ADD32C,0.078740*%
%ADD33C,0.059000*%
%ADD34R,0.059000X0.059000*%
%ADD35R,0.066929X0.066929*%
%ADD36C,0.066929*%
%ADD37C,0.051181*%

%LPD*%
G54D11*
G01X18443Y10232D02*
G01X17952Y10723D01*
G01X17952Y11413D01*
G01X18794Y12255D01*
G01X20048Y9996D02*
G01X19743Y10301D01*
G01X19368Y10301D01*
G01X19214Y10150D01*
G01X18527Y10150D01*
G01X18443Y10232D01*
G01X18443Y10232D02*
G01X17376Y9165D01*
G01X16368Y6200D02*
G01X16368Y8276D01*
G01X16777Y8684D01*
G01X16894Y8684D01*
G01X17376Y9165D01*
G01X16534Y11005D02*
G01X16303Y11234D01*
G01X15948Y11234D01*
G01X15785Y11071D01*
G01X12035Y11071D01*
G01X15764Y6200D02*
G01X16368Y6200D01*
G01X16635Y6200D02*
G01X16368Y6200D01*
G01X7557Y6826D02*
G01X7353Y6826D01*
G01X7261Y6736D01*
G01X7032Y6736D02*
G01X7261Y6736D01*
G01X10373Y11300D02*
G01X10144Y11071D01*
G01X5928Y11071D01*
G01X3400Y13600D01*
G01X10373Y11300D02*
G01X10482Y11300D01*
G01X10264Y11300D02*
G01X10373Y11300D01*
G01X10482Y11300D02*
G01X12035Y11300D01*
G01X4900Y6736D02*
G01X5128Y6736D01*
G01X5967Y6626D02*
G01X5238Y6626D01*
G01X5128Y6736D01*
G01X5967Y6626D02*
G01X5967Y6517D01*
G01X5967Y6736D02*
G01X5967Y6626D01*
G01X12035Y11300D02*
G01X12035Y11071D01*
G01X16000Y1000D02*
G01X15764Y1236D01*
G01X15764Y5971D01*
G01X16000Y1000D02*
G01X15311Y311D01*
G01X10989Y311D01*
G01X10601Y700D01*
G01X5500Y5400D02*
G01X5890Y5400D01*
G01X7400Y5565D02*
G01X6055Y5565D01*
G01X5890Y5400D01*
G01X7400Y5565D02*
G01X7400Y5728D01*
G01X7400Y5400D02*
G01X7400Y5565D01*
G01X2546Y7592D02*
G01X2076Y7592D01*
G01X2571Y7848D02*
G01X2571Y7615D01*
G01X2546Y7592D01*
G01X2546Y7592D02*
G01X2571Y7592D01*
G01X2076Y7848D02*
G01X2571Y7848D01*
G01X7032Y6517D02*
G01X5967Y6517D01*
G01X4900Y6736D02*
G01X3426Y6736D01*
G01X2571Y7592D01*
G01X8100Y6517D02*
G01X8100Y6736D01*
G01X8100Y6428D02*
G01X8100Y6517D01*
G01X8100Y6517D02*
G01X7032Y6517D01*
G01X15764Y6200D02*
G01X15764Y5971D01*
G01X15764Y5971D02*
G01X8557Y5971D01*
G01X8100Y6428D01*
G01X7400Y5728D02*
G01X8100Y6428D01*
G01X10601Y700D02*
G01X7701Y700D01*
G01X7032Y6736D02*
G01X7032Y6517D01*
G01X3682Y19159D02*
G01X3240Y19159D01*
G01X3100Y19300D01*
G01X9400Y20000D02*
G01X8559Y19159D01*
G01X3682Y19159D01*
G01X3682Y19159D02*
G01X3682Y16800D01*
G01X3463Y16800D02*
G01X3682Y16800D01*
G01X4300Y15500D02*
G01X5305Y15500D01*
G01X3400Y14600D02*
G01X4300Y15500D01*
G01X3682Y16800D02*
G01X3682Y16117D01*
G01X4300Y15500D01*
G01X17000Y1000D02*
G01X16000Y1000D01*
G01X23600Y4836D02*
G01X25964Y4836D01*
G01X26000Y4800D01*
G01X3380Y894D02*
G01X3380Y498D01*
G01X3380Y498D02*
G01X3726Y151D01*
G01X7151Y151D01*
G01X7701Y700D01*
G01X1530Y14600D02*
G01X1530Y16800D01*
G01X1530Y14600D02*
G01X1400Y14600D01*
G01X16400Y10569D02*
G01X16371Y10540D01*
G01X11586Y10540D01*
G01X9992Y8946D01*
G01X9756Y8946D01*
G01X8100Y7288D01*
G01X20181Y10142D02*
G01X21789Y10142D01*
G01X22196Y10548D01*
G01X22196Y10800D01*
G01X17511Y9021D02*
G01X16926Y8436D01*
G01X16926Y8423D01*
G01X16926Y8423D01*
G01X18656Y12394D02*
G01X16815Y10553D01*
G01X16702Y10553D01*
G01X16686Y10569D01*
G01X16400Y10569D01*
G01X16400Y10861D02*
G01X16400Y10569D01*
G01X8100Y7069D02*
G01X7871Y7069D01*
G01X7032Y7069D02*
G01X7261Y7069D01*
G01X7261Y7069D02*
G01X7280Y7088D01*
G01X7853Y7088D01*
G01X7871Y7069D01*
G01X26000Y11400D02*
G01X26000Y11528D01*
G01X25444Y12082D01*
G01X23627Y12082D01*
G01X22344Y10800D01*
G01X8100Y7069D02*
G01X8100Y7288D01*
G01X26000Y7348D02*
G01X25560Y7348D01*
G01X23600Y5388D01*
G01X7400Y4600D02*
G01X7400Y4928D01*
G01X5921Y4994D02*
G01X7334Y4994D01*
G01X7400Y4928D01*
G01X4900Y7069D02*
G01X3634Y7069D01*
G01X5967Y7069D02*
G01X4900Y7069D01*
G01X22344Y10800D02*
G01X22196Y10800D01*
G01X22493Y10800D02*
G01X22344Y10800D01*
G01X7400Y4600D02*
G01X7400Y4271D01*
G01X3380Y1800D02*
G01X3380Y2196D01*
G01X3380Y2196D02*
G01X5326Y2196D01*
G01X7400Y4271D01*
G01X7032Y7069D02*
G01X5967Y7069D01*
G01X10601Y2700D02*
G01X10601Y2048D01*
G01X14000Y1000D02*
G01X12952Y2048D01*
G01X10601Y2048D01*
G01X10601Y3351D02*
G01X8317Y3351D01*
G01X7400Y4271D01*
G01X10601Y2700D02*
G01X10601Y3351D01*
G01X23600Y5169D02*
G01X23600Y5388D01*
G01X26000Y7800D02*
G01X26000Y7348D01*
G01X20000Y4900D02*
G01X20000Y5351D01*
G01X20000Y5351D02*
G01X19642Y5351D01*
G01X18757Y6236D01*
G01X17782Y12261D02*
G01X17557Y12486D01*
G01X17557Y12682D01*
G01X17722Y12848D01*
G01X18007Y12848D01*
G01X16538Y10000D02*
G01X16277Y9740D01*
G01X12581Y9740D01*
G01X7894Y15500D02*
G01X8192Y15500D01*
G01X9885Y14607D02*
G01X9084Y14607D01*
G01X8192Y15500D01*
G01X19347Y9303D02*
G01X19769Y8882D01*
G01X21727Y8882D01*
G01X21810Y8965D01*
G01X19902Y9863D02*
G01X20136Y9630D01*
G01X20893Y9630D01*
G01X20973Y9711D01*
G01X10397Y7778D02*
G01X15431Y7778D01*
G01X17100Y9446D01*
G01X12369Y11300D02*
G01X12369Y11528D01*
G01X12160Y13359D02*
G01X12369Y13150D01*
G01X12369Y11528D01*
G01X12160Y13359D02*
G01X12160Y13519D01*
G01X12160Y13200D02*
G01X12160Y13359D01*
G01X11550Y15700D02*
G01X11965Y15700D01*
G01X11965Y15700D02*
G01X11965Y13713D01*
G01X12160Y13519D01*
G01X19348Y11694D02*
G01X18968Y11315D01*
G01X19488Y11555D02*
G01X20436Y12503D01*
G01X21778Y12503D01*
G01X21000Y4900D02*
G01X19631Y6269D01*
G01X19247Y6269D01*
G01X19628Y11417D02*
G01X19106Y10896D01*
G01X19106Y10411D01*
G01X19630Y9578D02*
G01X19856Y9351D01*
G01X20043Y9351D01*
G01X20140Y9448D01*
G01X20140Y9448D01*
G01X22081Y9448D01*
G01X23528Y13600D02*
G01X23681Y13448D01*
G01X23793Y13448D01*
G01X23200Y13600D02*
G01X23528Y13600D01*
G01X16652Y4028D02*
G01X16652Y2798D01*
G01X18000Y1451D01*
G01X16409Y10146D02*
G01X15746Y10146D01*
G01X18000Y1000D02*
G01X18000Y1451D01*
G01X18939Y12121D02*
G01X19180Y12361D01*
G01X19180Y12615D01*
G01X19564Y13000D01*
G01X25096Y13000D01*
G01X26518Y11578D01*
G01X26518Y7317D01*
G01X26000Y6800D01*
G01X19485Y9446D02*
G01X19782Y9148D01*
G01X21285Y9148D01*
G01X19900Y11132D02*
G01X19525Y10757D01*
G01X18967Y9886D02*
G01X19031Y9951D01*
G01X19535Y9951D01*
G01X19764Y9721D01*
G01X15400Y20000D02*
G01X13275Y17875D01*
G01X13275Y17851D01*
G01X17238Y9303D02*
G01X17560Y9626D01*
G01X17560Y9742D01*
G01X1863Y16800D02*
G01X1863Y18536D01*
G01X1100Y19300D01*
G01X1863Y16800D02*
G01X3130Y16800D01*
G01X18000Y20000D02*
G01X17922Y20000D01*
G01X13971Y16046D01*
G01X13971Y14126D01*
G01X16815Y11282D01*
G01X25000Y10400D02*
G01X25476Y10876D01*
G01X25476Y11796D01*
G01X25393Y11878D01*
G01X24596Y11878D01*
G01X22914Y10196D01*
G01X22914Y9700D01*
G01X21914Y8700D01*
G01X19675Y8700D01*
G01X19209Y9165D01*
G01X9728Y8261D02*
G01X15636Y8261D01*
G01X16963Y9586D01*
G01X10239Y12880D02*
G01X10239Y11838D01*
G01X9930Y11528D01*
G01X9930Y11300D02*
G01X9930Y11528D01*
G01X10239Y13200D02*
G01X10239Y12880D01*
G01X10239Y13200D02*
G01X10239Y13519D01*
G01X10450Y15700D02*
G01X10450Y13728D01*
G01X10239Y13519D01*
G01X17934Y12388D02*
G01X18727Y13182D01*
G01X25205Y13182D01*
G01X26700Y11686D01*
G01X26700Y6500D01*
G01X26000Y5800D01*
G01X16400Y19548D02*
G01X13171Y16319D01*
G01X13171Y14648D01*
G01X16673Y11144D01*
G01X16400Y20000D02*
G01X16400Y19548D01*
G01X16657Y7819D02*
G01X16657Y7396D01*
G01X16681Y9863D02*
G01X16297Y9478D01*
G01X15980Y9478D01*
G01X16657Y7396D02*
G01X16915Y7396D01*
G01X16969Y6200D02*
G01X16969Y6428D01*
G01X16915Y7396D02*
G01X16915Y6482D01*
G01X16969Y6428D01*
G01X24523Y11400D02*
G01X24523Y11053D01*
G01X21989Y8519D01*
G01X19577Y8519D01*
G01X19076Y9019D01*
G01X25000Y11400D02*
G01X24523Y11400D01*
G01X26000Y10400D02*
G01X25517Y9917D01*
G01X23660Y9917D01*
G01X22081Y8338D01*
G01X19478Y8338D01*
G01X18927Y8888D01*
G01X2076Y8615D02*
G01X1580Y8615D01*
G01X1730Y4700D02*
G01X1730Y5273D01*
G01X1730Y5273D02*
G01X1309Y5692D01*
G01X1309Y8344D01*
G01X1580Y8615D01*
G01X7701Y2250D02*
G01X7701Y1657D01*
G01X3380Y2903D02*
G01X2886Y2409D01*
G01X2886Y1426D01*
G01X2909Y1403D01*
G01X4661Y1403D01*
G01X5144Y1886D01*
G01X7236Y1886D01*
G01X7465Y1657D01*
G01X7701Y1657D01*
G01X3380Y2903D02*
G01X3380Y3101D01*
G01X3380Y2705D02*
G01X3380Y2903D01*
G01X7701Y2546D02*
G01X8380Y1865D01*
G01X10778Y1865D01*
G01X12122Y521D01*
G01X14522Y521D01*
G01X15000Y1000D01*
G01X7701Y2250D02*
G01X7701Y2546D01*
G01X3469Y4700D02*
G01X4044Y4700D01*
G01X5500Y4600D02*
G01X4144Y4600D01*
G01X4044Y4700D01*
G01X3380Y3101D02*
G01X3469Y3190D01*
G01X3469Y4700D01*
G01X24035Y1017D02*
G01X24035Y3505D01*
G01X18793Y8746D01*
G01X23035Y1017D02*
G01X18497Y5555D01*
G01X18497Y8453D01*
G01X18652Y8607D01*
G01X17932Y8607D02*
G01X17932Y5119D01*
G01X22035Y1017D01*
G01X17790Y8746D02*
G01X17559Y8515D01*
G01X17559Y4494D01*
G01X21035Y1017D01*
G01X17656Y8888D02*
G01X17377Y8609D01*
G01X17377Y4126D01*
G01X20035Y1469D01*
G01X20035Y1017D02*
G01X20035Y1469D01*
G01X15430Y7338D02*
G01X10265Y7338D01*
G01X9459Y8144D01*
G01X9459Y8359D01*
G01X9810Y8711D01*
G01X15807Y8711D01*
G01X16821Y9725D01*
G01X15430Y7338D02*
G01X15488Y7396D01*
G01X15430Y6428D02*
G01X15430Y7338D01*
G01X15747Y7396D02*
G01X15488Y7396D01*
G01X15430Y6200D02*
G01X15430Y6428D01*
G01X22400Y13600D02*
G01X17627Y13600D01*
G01X13500Y15309D02*
G01X13447Y15255D01*
G01X13447Y15221D01*
G01X13500Y15700D02*
G01X13500Y15309D01*
G01X3971Y12198D02*
G01X3801Y12198D01*
G01X2400Y13600D01*
G01X17646Y12121D02*
G01X17360Y12407D01*
G01X17360Y14359D01*
G01X23000Y20000D01*
G01X17510Y11976D02*
G01X17136Y12351D01*
G01X17136Y15136D01*
G01X22000Y20000D01*
G01X17363Y11846D02*
G01X16902Y12307D01*
G01X16902Y15901D01*
G01X21000Y20000D01*
G01X17235Y11694D02*
G01X16721Y12209D01*
G01X16721Y16721D01*
G01X20000Y20000D01*
G01X7400Y20000D02*
G01X8236Y20836D01*
G01X19164Y20836D01*
G01X20000Y20000D01*
G01X17093Y11559D02*
G01X16539Y12111D01*
G01X16539Y17540D01*
G01X19000Y20000D01*
G01X8400Y20000D02*
G01X9053Y20653D01*
G01X18346Y20653D01*
G01X19000Y20000D01*
G01X19213Y11838D02*
G01X19440Y12067D01*
G01X19440Y12507D01*
G01X19440Y12507D02*
G01X19740Y12807D01*
G01X21844Y12807D01*
G01X22039Y12611D01*
G01X22039Y11294D01*
G01X21864Y11117D01*
G01X9884Y9207D02*
G01X9760Y9207D01*
G01X8659Y8103D01*
G01X2076Y8103D01*
G01X21864Y10800D02*
G01X21864Y11117D01*
G01X19078Y11980D02*
G01X18359Y11261D01*
G01X18256Y11261D01*
G01X2076Y8359D02*
G01X4075Y8359D01*
G01X6515Y10801D01*
G01X16119Y10801D01*
G01X14300Y15700D02*
G01X14300Y14075D01*
G01X16952Y11423D01*
G01X19768Y11278D02*
G01X20150Y11661D01*
G01X20046Y11001D02*
G01X20434Y11388D01*
G01X20185Y10861D02*
G01X20293Y10861D01*
G01X20694Y11263D01*
G01X20694Y11609D01*
G01X7263Y15500D02*
G01X7263Y14333D01*
G01X7200Y14269D01*
G01X5936Y15500D02*
G01X5900Y15463D01*
G01X5900Y14269D01*
G01X5900Y13936D02*
G01X7200Y13936D01*
G01X1400Y14600D02*
G01X1900Y14100D01*
G01X4300Y14100D01*
G01X4463Y13936D01*
G01X5900Y13936D01*
G54D12*
G01X16187Y9926D02*
G01X16610Y10349D01*
G01X16327Y9786D02*
G01X16750Y10209D01*
G01X16466Y9647D02*
G01X16889Y10070D01*
G01X16605Y9508D02*
G01X17028Y9931D01*
G01X16744Y9369D02*
G01X17167Y9792D01*
G01X16883Y9230D02*
G01X17306Y9653D01*
G01X17023Y9091D02*
G01X17446Y9514D01*
G01X17162Y8951D02*
G01X17585Y9374D01*
G01X17301Y8812D02*
G01X17724Y9235D01*
G01X17440Y8673D02*
G01X17863Y9096D01*
G01X17579Y8534D02*
G01X18002Y8957D01*
G01X17719Y8395D02*
G01X18142Y8818D01*
G01X18442Y8818D02*
G01X18865Y8395D01*
G01X18582Y8957D02*
G01X19005Y8534D01*
G01X18721Y9096D02*
G01X19144Y8673D01*
G01X18860Y9235D02*
G01X19283Y8812D01*
G01X18999Y9374D02*
G01X19422Y8951D01*
G01X19138Y9514D02*
G01X19561Y9091D01*
G01X19278Y9653D02*
G01X19701Y9230D01*
G01X19417Y9792D02*
G01X19840Y9369D01*
G01X19556Y9931D02*
G01X19979Y9508D01*
G01X19695Y10070D02*
G01X20118Y9647D01*
G01X19834Y10209D02*
G01X20257Y9786D01*
G01X19974Y10349D02*
G01X20397Y9926D01*
G01X19974Y10649D02*
G01X20397Y11072D01*
G01X19834Y10789D02*
G01X20257Y11212D01*
G01X19695Y10928D02*
G01X20118Y11351D01*
G01X19556Y11067D02*
G01X19979Y11490D01*
G01X19417Y11206D02*
G01X19840Y11629D01*
G01X19278Y11345D02*
G01X19701Y11768D01*
G01X19138Y11485D02*
G01X19561Y11908D01*
G01X18999Y11624D02*
G01X19422Y12047D01*
G01X18860Y11763D02*
G01X19283Y12186D01*
G01X18721Y11902D02*
G01X19144Y12325D01*
G01X18582Y12041D02*
G01X19005Y12464D01*
G01X18442Y12181D02*
G01X18865Y12604D01*
G01X17719Y12604D02*
G01X18142Y12181D01*
G01X17579Y12464D02*
G01X18002Y12041D01*
G01X17440Y12325D02*
G01X17863Y11902D01*
G01X17301Y12186D02*
G01X17724Y11763D01*
G01X17162Y12047D02*
G01X17585Y11624D01*
G01X17023Y11908D02*
G01X17446Y11485D01*
G01X16883Y11768D02*
G01X17306Y11345D01*
G01X16744Y11629D02*
G01X17167Y11206D01*
G01X16605Y11490D02*
G01X17028Y11067D01*
G01X16466Y11351D02*
G01X16889Y10928D01*
G01X16327Y11212D02*
G01X16750Y10789D01*
G01X16187Y11072D02*
G01X16610Y10649D01*
G54D14*
G01X7894Y15500D03*
G01X7264Y15500D03*
G54D15*
G01X2075Y7592D03*
G01X2075Y7848D03*
G01X2075Y8104D03*
G01X2075Y8359D03*
G01X2075Y8615D03*
G54D16*
G01X378Y7471D03*
G01X384Y8762D03*
G54D17*
G01X3469Y4700D03*
G01X1730Y4700D03*
G54D18*
G01X4900Y7069D03*
G01X4900Y6736D03*
G01X7033Y7069D03*
G01X7033Y6736D03*
G01X8100Y7069D03*
G01X8100Y6736D03*
G54D19*
G01X12369Y11300D03*
G01X12035Y11300D03*
G01X9930Y11300D03*
G01X10264Y11300D03*
G01X15430Y6200D03*
G01X15764Y6200D03*
G01X16969Y6200D03*
G01X16635Y6200D03*
G54D20*
G01X15746Y7396D03*
G01X16657Y7396D03*
G54D21*
G01X7701Y700D03*
G01X7701Y2250D03*
G54D14*
G01X5306Y15499D03*
G01X5935Y15499D03*
G54D22*
G01X10450Y15700D03*
G01X11550Y15700D03*
G54D14*
G01X22493Y10800D03*
G01X21864Y10800D03*
G54D18*
G01X5900Y14269D03*
G01X5900Y13936D03*
G01X5966Y7069D03*
G01X5966Y6736D03*
G01X7200Y14269D03*
G01X7200Y13936D03*
G54D23*
G01X5500Y5399D03*
G01X5500Y4599D03*
G01X7400Y5399D03*
G01X7400Y4599D03*
G54D19*
G01X3130Y16800D03*
G01X3463Y16800D03*
G01X1530Y16800D03*
G01X1863Y16800D03*
G54D24*
G01X14300Y15700D03*
G01X13500Y15700D03*
G01X22400Y13599D03*
G01X23200Y13599D03*
G54D25*
G01X10601Y2700D03*
G01X10601Y700D03*
G54D18*
G01X23600Y5169D03*
G01X23600Y4836D03*
G54D26*
G01X900Y1800D03*
G54D27*
G01X3380Y1800D03*
G01X3380Y2705D03*
G01X3380Y894D03*
G54D28*
G01X20000Y4900D03*
G54D29*
G01X21000Y4900D03*
G54D30*
G01X1767Y9048D03*
G01X1767Y7142D03*
G54D28*
G01X25000Y17500D03*
G54D29*
G01X25000Y16500D03*
G01X25035Y1017D03*
G01X24035Y1017D03*
G01X23035Y1017D03*
G01X22035Y1017D03*
G01X21035Y1017D03*
G54D28*
G01X20035Y1017D03*
G54D31*
G01X12160Y13200D03*
G01X10239Y13200D03*
G54D32*
G01X3100Y19300D03*
G01X1100Y19300D03*
G54D33*
G01X3400Y14600D03*
G01X2400Y14600D03*
G01X1400Y14600D03*
G01X3400Y13600D03*
G01X2400Y13600D03*
G54D34*
G01X1400Y13600D03*
G54D35*
G01X25000Y11400D03*
G54D36*
G01X26000Y11400D03*
G01X25000Y10400D03*
G01X26000Y10400D03*
G01X25000Y9400D03*
G01X26000Y9400D03*
G54D29*
G01X13000Y1000D03*
G01X14000Y1000D03*
G01X15000Y1000D03*
G01X16000Y1000D03*
G01X17000Y1000D03*
G54D28*
G01X18000Y1000D03*
G01X26000Y7800D03*
G54D29*
G01X26000Y6800D03*
G01X26000Y5800D03*
G01X26000Y4800D03*
G54D28*
G01X25000Y20000D03*
G54D29*
G01X24000Y20000D03*
G01X23000Y20000D03*
G01X22000Y20000D03*
G01X21000Y20000D03*
G01X20000Y20000D03*
G01X19000Y20000D03*
G01X18000Y20000D03*
G01X7400Y20000D03*
G01X8400Y20000D03*
G01X9400Y20000D03*
G01X10400Y20000D03*
G01X11400Y20000D03*
G01X12400Y20000D03*
G01X13400Y20000D03*
G01X14400Y20000D03*
G01X15400Y20000D03*
G54D28*
G01X16400Y20000D03*
G54D13*
G01X7557Y6826D03*
G01X16926Y8423D03*
G01X5921Y4994D03*
G01X3634Y7069D03*
G01X18007Y12848D03*
G01X18757Y6236D03*
G01X9885Y14607D03*
G01X12581Y9740D03*
G01X21810Y8965D03*
G01X20973Y9711D03*
G01X10400Y7800D03*
G01X18968Y11315D03*
G01X21778Y12503D03*
G01X19247Y6269D03*
G01X19106Y10411D03*
G01X23793Y13448D03*
G01X22081Y9448D03*
G01X16652Y4028D03*
G01X15746Y10146D03*
G01X21285Y9148D03*
G01X19525Y10757D03*
G01X18967Y9886D03*
G01X13275Y17851D03*
G01X17560Y9742D03*
G01X9722Y8273D03*
G01X16657Y7819D03*
G01X15980Y9478D03*
G01X17627Y13600D03*
G01X3971Y12198D03*
G01X13447Y15221D03*
G01X9884Y9207D03*
G01X19440Y12507D03*
G01X16119Y10801D03*
G01X18256Y11261D03*
G01X20150Y11661D03*
G01X20434Y11388D03*
G01X20694Y11609D03*
G54D37*
G01X881Y6675D02*
G01X526Y6675D01*
G01X881Y9525D02*
G01X526Y9525D01*
M00*
M02*
