G04 ---------------------------- Layer name :BOTTOM SOLDER LAYER*
G04 EasyEDA v5.5.14, Mon, 18 Jun 2018 23:09:04 GMT*
G04 84bf75b42abb48d08708263c728ca580*
G04 Gerber Generator version 0.2*
G04 Scale: 100 percent, Rotated: No, Reflected: No *
G04 Dimensions in inches *
G04 leading zeros omitted , absolute positions ,2 integer and 4 decimal *
%FSLAX24Y24*%
%MOIN*%
G90*
G70D02*

%ADD47C,0.059181*%
%ADD48R,0.070000X0.070000*%
%ADD49C,0.070000*%
%ADD50C,0.067055*%
%ADD51R,0.043700X0.043700*%
%ADD52C,0.086740*%
%ADD53C,0.067000*%
%ADD54R,0.067000X0.067000*%
%ADD55R,0.074929X0.074929*%
%ADD56C,0.074929*%

%LPD*%
G54D47*
G01X881Y6675D02*
G01X526Y6675D01*
G01X881Y9525D02*
G01X526Y9525D01*
G54D48*
G01X20000Y4900D03*
G54D49*
G01X21000Y4900D03*
G54D50*
G01X1767Y9048D03*
G01X1767Y7142D03*
G54D48*
G01X25000Y17500D03*
G54D49*
G01X25000Y16500D03*
G01X25035Y1017D03*
G01X24035Y1017D03*
G01X23035Y1017D03*
G01X22035Y1017D03*
G01X21035Y1017D03*
G54D48*
G01X20035Y1017D03*
G54D51*
G01X12160Y13200D03*
G01X10239Y13200D03*
G54D52*
G01X3100Y19300D03*
G01X1100Y19300D03*
G54D53*
G01X3400Y14600D03*
G01X2400Y14600D03*
G01X1400Y14600D03*
G01X3400Y13600D03*
G01X2400Y13600D03*
G54D54*
G01X1400Y13600D03*
G54D55*
G01X25000Y11400D03*
G54D56*
G01X26000Y11400D03*
G01X25000Y10400D03*
G01X26000Y10400D03*
G01X25000Y9400D03*
G01X26000Y9400D03*
G54D49*
G01X13000Y1000D03*
G01X14000Y1000D03*
G01X15000Y1000D03*
G01X16000Y1000D03*
G01X17000Y1000D03*
G54D48*
G01X18000Y1000D03*
G01X26000Y7800D03*
G54D49*
G01X26000Y6800D03*
G01X26000Y5800D03*
G01X26000Y4800D03*
G54D48*
G01X25000Y20000D03*
G54D49*
G01X24000Y20000D03*
G01X23000Y20000D03*
G01X22000Y20000D03*
G01X21000Y20000D03*
G01X20000Y20000D03*
G01X19000Y20000D03*
G01X18000Y20000D03*
G01X7400Y20000D03*
G01X8400Y20000D03*
G01X9400Y20000D03*
G01X10400Y20000D03*
G01X11400Y20000D03*
G01X12400Y20000D03*
G01X13400Y20000D03*
G01X14400Y20000D03*
G01X15400Y20000D03*
G54D48*
G01X16400Y20000D03*
M00*
M02*
