G04 ---------------------------- Layer name :BOTTOM SILK LAYER*
G04 EasyEDA v5.5.14, Mon, 18 Jun 2018 23:09:04 GMT*
G04 84bf75b42abb48d08708263c728ca580*
G04 Gerber Generator version 0.2*
G04 Scale: 100 percent, Rotated: No, Reflected: No *
G04 Dimensions in inches *
G04 leading zeros omitted , absolute positions ,2 integer and 4 decimal *
%FSLAX24Y24*%
%MOIN*%
G90*
G70D02*

%ADD10C,0.010000*%
%ADD11C,0.008000*%

%LPD*%
G54D10*
G01X11711Y15911D02*
G01X11786Y16078D01*
G01X12107Y16532D01*
G01X12652Y17005D01*
G01X13307Y17309D01*
G01X13852Y17415D01*
G01X14227Y17415D01*
G01X14740Y17315D01*
G01X14802Y17294D01*
G01X14594Y16848D01*
G01X14457Y16886D01*
G01X13760Y16907D01*
G01X13093Y16702D01*
G01X12972Y16628D01*
G01X13538Y14619D01*
G01X14150Y15907D01*
G01X14689Y14613D01*
G01X15081Y15534D01*
G01X15326Y15019D01*
G01X14721Y13596D01*
G01X14147Y14859D01*
G01X13432Y13315D01*
G01X12471Y16196D01*
G01X12340Y16044D01*
G01X12075Y15482D01*
G01X11988Y14700D01*
G01X12200Y13940D01*
G01X12552Y13428D01*
G01X12715Y13288D01*
G01X12857Y13180D01*
G01X12650Y12734D01*
G01X12461Y12855D01*
G01X11985Y13357D01*
G01X11593Y14150D01*
G01X11493Y15028D01*
G01X11621Y15707D01*
G01X11711Y15911D01*
G01X13261Y12963D02*
G01X13442Y12890D01*
G01X14038Y12811D01*
G01X14789Y12951D01*
G01X15436Y13357D01*
G01X15821Y13819D01*
G01X15902Y13994D01*
G01X15985Y14171D01*
G01X16093Y14761D01*
G01X15989Y15519D01*
G01X15617Y16186D01*
G01X15172Y16592D01*
G01X15002Y16682D01*
G01X15210Y17128D01*
G01X15426Y17017D01*
G01X15984Y16517D01*
G01X16456Y15688D01*
G01X16590Y14744D01*
G01X16456Y14007D01*
G01X16353Y13788D01*
G01X16251Y13569D01*
G01X15771Y12992D01*
G01X14960Y12490D01*
G01X14021Y12321D01*
G01X13278Y12428D01*
G01X13056Y12523D01*
G01X13261Y12963D01*
G01X20897Y10069D02*
G01X21177Y10963D01*
G01X21314Y10963D01*
G01X21597Y10065D01*
G01X21880Y10963D01*
G01X22080Y10963D01*
G01X21672Y9663D01*
G01X21532Y9663D01*
G01X21248Y10559D01*
G01X20968Y9663D01*
G01X20827Y9663D01*
G01X20414Y10963D01*
G01X20613Y10963D01*
G01X20897Y10069D01*
G01X19455Y10963D02*
G01X19651Y10963D01*
G01X19651Y9663D01*
G01X19455Y9663D01*
G01X19455Y10963D01*
G01X18401Y10963D02*
G01X18596Y10963D01*
G01X18596Y9663D01*
G01X17836Y9663D01*
G01X17836Y9840D01*
G01X18401Y9840D01*
G01X18401Y10963D01*
G01X16877Y10963D02*
G01X17072Y10963D01*
G01X17072Y9663D01*
G01X16311Y9663D01*
G01X16311Y9840D01*
G01X16877Y9840D01*
G01X16877Y10963D01*
G01X14371Y10578D02*
G01X14321Y10376D01*
G01X14319Y10271D01*
G01X14369Y10057D01*
G01X14484Y9869D01*
G01X14531Y9821D01*
G01X14709Y9703D01*
G01X14750Y9686D01*
G01X14930Y9642D01*
G01X15056Y9642D01*
G01X15231Y9684D01*
G01X15293Y9709D01*
G01X15467Y9834D01*
G01X15593Y10007D01*
G01X15626Y10090D01*
G01X15626Y10536D01*
G01X15593Y10619D01*
G01X15467Y10790D01*
G01X15296Y10915D01*
G01X15235Y10940D01*
G01X15014Y10982D01*
G01X14968Y10982D01*
G01X14744Y10940D01*
G01X14703Y10923D01*
G01X14530Y10805D01*
G01X14500Y10775D01*
G01X14371Y10578D01*
G01X14514Y10315D02*
G01X14543Y10492D01*
G01X14560Y10536D01*
G01X14772Y10751D01*
G01X14815Y10769D01*
G01X14976Y10801D01*
G01X15009Y10801D01*
G01X15167Y10769D01*
G01X15196Y10757D01*
G01X15321Y10669D01*
G01X15342Y10648D01*
G01X15426Y10519D01*
G01X15438Y10490D01*
G01X15467Y10328D01*
G01X15468Y10261D01*
G01X15392Y10038D01*
G01X15221Y9876D01*
G01X15146Y9846D01*
G01X14834Y9846D01*
G01X14789Y9863D01*
G01X14643Y9973D01*
G01X14556Y10103D01*
G01X14543Y10134D01*
G01X14513Y10269D01*
G01X14514Y10315D01*
G01X12243Y10963D02*
G01X12315Y10963D01*
G01X12598Y10069D01*
G01X12880Y10963D01*
G01X13017Y10963D01*
G01X13300Y10065D01*
G01X13582Y10963D01*
G01X13781Y10963D01*
G01X13373Y9663D01*
G01X13235Y9663D01*
G01X12952Y10559D01*
G01X12671Y9663D01*
G01X12530Y9663D01*
G01X12172Y10786D01*
G01X11327Y10786D01*
G01X11327Y9663D01*
G01X11131Y9663D01*
G01X11131Y10786D01*
G01X10744Y10786D01*
G01X10665Y10963D01*
G01X12243Y10963D01*
G01X9656Y10196D02*
G01X9148Y9663D01*
G01X9407Y9663D01*
G01X9918Y10196D01*
G01X9918Y9663D01*
G01X10114Y9663D01*
G01X10114Y10961D01*
G01X9689Y10963D01*
G01X9542Y10940D01*
G01X9394Y10867D01*
G01X9292Y10748D01*
G01X9251Y10613D01*
G01X9251Y10538D01*
G01X9296Y10407D01*
G01X9403Y10288D01*
G01X9536Y10217D01*
G01X9656Y10196D01*
G01X9467Y10661D02*
G01X9532Y10730D01*
G01X9618Y10773D01*
G01X9711Y10784D01*
G01X9919Y10784D01*
G01X9919Y10357D01*
G01X9706Y10357D01*
G01X9619Y10371D01*
G01X9536Y10411D01*
G01X9469Y10492D01*
G01X9451Y10573D01*
G01X9475Y10661D01*
G01X9467Y10661D01*
G01X8225Y10236D02*
G01X7680Y10236D01*
G01X7680Y10413D01*
G01X8225Y10413D01*
G01X8225Y10786D01*
G01X7644Y10786D01*
G01X7644Y10963D01*
G01X8419Y10963D01*
G01X8419Y9663D01*
G01X7609Y9663D01*
G01X7609Y9840D01*
G01X8225Y9840D01*
G01X8225Y10236D01*
G01X6515Y10236D02*
G01X5971Y10236D01*
G01X5971Y10413D01*
G01X6515Y10413D01*
G01X6515Y10800D01*
G01X5911Y10800D01*
G01X5911Y11000D01*
G01X6711Y11000D01*
G01X6711Y9663D01*
G01X5900Y9663D01*
G01X5900Y9840D01*
G01X6515Y9840D01*
G01X6515Y10236D01*
G01X12318Y7046D02*
G01X12735Y7123D01*
G01X12759Y7140D01*
G01X12886Y7440D01*
G01X12888Y7471D01*
G01X12644Y7825D01*
G01X12643Y7851D01*
G01X12946Y8155D01*
G01X12972Y8157D01*
G01X13334Y7909D01*
G01X13363Y7907D01*
G01X13655Y8026D01*
G01X13676Y8048D01*
G01X13756Y8480D01*
G01X13776Y8500D01*
G01X14206Y8500D01*
G01X14227Y8484D01*
G01X14309Y8051D01*
G01X14326Y8028D01*
G01X14617Y7909D01*
G01X14647Y7907D01*
G01X15006Y8155D01*
G01X15035Y8157D01*
G01X15339Y7853D01*
G01X15340Y7828D01*
G01X15097Y7473D01*
G01X15096Y7442D01*
G01X15218Y7142D01*
G01X15239Y7121D01*
G01X15660Y7044D01*
G01X15677Y7023D01*
G01X15677Y6594D01*
G01X15661Y6573D01*
G01X15255Y6496D01*
G01X15231Y6478D01*
G01X15105Y6163D01*
G01X15102Y6132D01*
G01X15332Y5796D01*
G01X15335Y5769D01*
G01X15031Y5465D01*
G01X15003Y5463D01*
G01X14675Y5682D01*
G01X14646Y5684D01*
G01X14498Y5605D01*
G01X14476Y5613D01*
G01X14176Y6342D01*
G01X14181Y6369D01*
G01X14306Y6448D01*
G01X14439Y6653D01*
G01X14443Y6940D01*
G01X14285Y7180D01*
G01X14063Y7280D01*
G01X13915Y7280D01*
G01X13693Y7180D01*
G01X13535Y6940D01*
G01X13539Y6653D01*
G01X13672Y6448D01*
G01X13793Y6369D01*
G01X13803Y6344D01*
G01X13505Y5613D01*
G01X13481Y5603D01*
G01X13335Y5682D01*
G01X13305Y5684D01*
G01X12973Y5457D01*
G01X12947Y5455D01*
G01X12643Y5759D01*
G01X12642Y5786D01*
G01X12873Y6123D01*
G01X12875Y6153D01*
G01X12747Y6467D01*
G01X12727Y6488D01*
G01X12318Y6565D01*
G01X12300Y6584D01*
G01X12300Y7019D01*
G01X12318Y7036D01*
G54D11*
G01X17601Y5000D02*
G01X17674Y4963D01*
G01X17747Y4890D01*
G01X17783Y4818D01*
G01X17819Y4709D01*
G01X17819Y4527D01*
G01X17783Y4418D01*
G01X17747Y4345D01*
G01X17674Y4272D01*
G01X17601Y4236D01*
G01X17456Y4236D01*
G01X17383Y4272D01*
G01X17310Y4345D01*
G01X17274Y4418D01*
G01X17238Y4527D01*
G01X17238Y4709D01*
G01X17274Y4818D01*
G01X17310Y4890D01*
G01X17383Y4963D01*
G01X17456Y5000D01*
G01X17601Y5000D01*
G01X16998Y5000D02*
G01X16998Y4236D01*
G01X16998Y5000D02*
G01X16670Y5000D01*
G01X16561Y4963D01*
G01X16525Y4927D01*
G01X16489Y4854D01*
G01X16489Y4745D01*
G01X16525Y4672D01*
G01X16561Y4636D01*
G01X16670Y4600D01*
G01X16998Y4600D01*
G01X16249Y5000D02*
G01X16249Y4236D01*
G01X16249Y5000D02*
G01X15776Y5000D01*
G01X16249Y4636D02*
G01X15958Y4636D01*
G01X16249Y4236D02*
G01X15776Y4236D01*
G01X15536Y5000D02*
G01X15536Y4236D01*
G01X15536Y5000D02*
G01X15027Y4236D01*
G01X15027Y5000D02*
G01X15027Y4236D01*
G01X13718Y4890D02*
G01X13790Y4963D01*
G01X13900Y5000D01*
G01X14045Y5000D01*
G01X14154Y4963D01*
G01X14227Y4890D01*
G01X14227Y4818D01*
G01X14190Y4745D01*
G01X14154Y4709D01*
G01X14081Y4672D01*
G01X13863Y4600D01*
G01X13790Y4563D01*
G01X13754Y4527D01*
G01X13718Y4454D01*
G01X13718Y4345D01*
G01X13790Y4272D01*
G01X13900Y4236D01*
G01X14045Y4236D01*
G01X14154Y4272D01*
G01X14227Y4345D01*
G01X13260Y5000D02*
G01X13332Y4963D01*
G01X13405Y4890D01*
G01X13441Y4818D01*
G01X13478Y4709D01*
G01X13478Y4527D01*
G01X13441Y4418D01*
G01X13405Y4345D01*
G01X13332Y4272D01*
G01X13260Y4236D01*
G01X13114Y4236D01*
G01X13041Y4272D01*
G01X12969Y4345D01*
G01X12932Y4418D01*
G01X12896Y4527D01*
G01X12896Y4709D01*
G01X12932Y4818D01*
G01X12969Y4890D01*
G01X13041Y4963D01*
G01X13114Y5000D01*
G01X13260Y5000D01*
G01X12656Y5000D02*
G01X12656Y4454D01*
G01X12619Y4345D01*
G01X12547Y4272D01*
G01X12438Y4236D01*
G01X12365Y4236D01*
G01X12256Y4272D01*
G01X12183Y4345D01*
G01X12147Y4454D01*
G01X12147Y5000D01*
G01X11907Y5000D02*
G01X11907Y4236D01*
G01X11907Y5000D02*
G01X11580Y5000D01*
G01X11470Y4963D01*
G01X11434Y4927D01*
G01X11398Y4854D01*
G01X11398Y4781D01*
G01X11434Y4709D01*
G01X11470Y4672D01*
G01X11580Y4636D01*
G01X11907Y4636D01*
G01X11652Y4636D02*
G01X11398Y4236D01*
G01X10612Y4818D02*
G01X10649Y4890D01*
G01X10721Y4963D01*
G01X10794Y5000D01*
G01X10939Y5000D01*
G01X11012Y4963D01*
G01X11085Y4890D01*
G01X11121Y4818D01*
G01X11158Y4709D01*
G01X11158Y4527D01*
G01X11121Y4418D01*
G01X11085Y4345D01*
G01X11012Y4272D01*
G01X10939Y4236D01*
G01X10794Y4236D01*
G01X10721Y4272D01*
G01X10649Y4345D01*
G01X10612Y4418D01*
G01X10372Y5000D02*
G01X10372Y4236D01*
G01X10372Y5000D02*
G01X9900Y5000D01*
G01X10372Y4636D02*
G01X10081Y4636D01*
G01X10372Y4236D02*
G01X9900Y4236D01*
G01X16679Y3900D02*
G01X16679Y3136D01*
G01X16170Y3900D02*
G01X16170Y3136D01*
G01X16679Y3536D02*
G01X16170Y3536D01*
G01X15639Y3900D02*
G01X15930Y3136D01*
G01X15639Y3900D02*
G01X15349Y3136D01*
G01X15821Y3390D02*
G01X15458Y3390D01*
G01X15109Y3900D02*
G01X15109Y3136D01*
G01X15109Y3900D02*
G01X14781Y3900D01*
G01X14672Y3863D01*
G01X14636Y3827D01*
G01X14599Y3754D01*
G01X14599Y3681D01*
G01X14636Y3609D01*
G01X14672Y3572D01*
G01X14781Y3536D01*
G01X15109Y3536D01*
G01X14854Y3536D02*
G01X14599Y3136D01*
G01X14359Y3900D02*
G01X14359Y3136D01*
G01X14359Y3900D02*
G01X14105Y3900D01*
G01X13996Y3863D01*
G01X13923Y3790D01*
G01X13887Y3718D01*
G01X13850Y3609D01*
G01X13850Y3427D01*
G01X13887Y3318D01*
G01X13923Y3245D01*
G01X13996Y3172D01*
G01X14105Y3136D01*
G01X14359Y3136D01*
G01X13610Y3900D02*
G01X13429Y3136D01*
G01X13247Y3900D02*
G01X13429Y3136D01*
G01X13247Y3900D02*
G01X13065Y3136D01*
G01X12883Y3900D02*
G01X13065Y3136D01*
G01X12352Y3900D02*
G01X12643Y3136D01*
G01X12352Y3900D02*
G01X12061Y3136D01*
G01X12534Y3390D02*
G01X12170Y3390D01*
G01X11821Y3900D02*
G01X11821Y3136D01*
G01X11821Y3900D02*
G01X11494Y3900D01*
G01X11385Y3863D01*
G01X11349Y3827D01*
G01X11312Y3754D01*
G01X11312Y3681D01*
G01X11349Y3609D01*
G01X11385Y3572D01*
G01X11494Y3536D01*
G01X11821Y3536D01*
G01X11567Y3536D02*
G01X11312Y3136D01*
G01X11072Y3900D02*
G01X11072Y3136D01*
G01X11072Y3900D02*
G01X10599Y3900D01*
G01X11072Y3536D02*
G01X10781Y3536D01*
G01X11072Y3136D02*
G01X10599Y3136D01*
M00*
M02*
